<?xml version="1.0" encoding="utf-8"?>
<!-- Generator: Adobe Illustrator 24.3.0, SVG Export Plug-In . SVG Version: 6.00 Build 0)  -->
<svg version="1.1" id="Layer_1" xmlns="http://www.w3.org/2000/svg" xmlns:xlink="http://www.w3.org/1999/xlink" x="0px" y="0px"
	 viewBox="0 0 384 384" style="enable-background:new 0 0 384 384;" xml:space="preserve">
<style type="text/css">
	.st0{fill:#FFFFFF;}
</style>
<path d="M192.5,336.7c-14.4-14.4-28.4-27.9-41.7-41.9c-4.9-5.1-9.8-7.3-16.9-6.9C121.5,288.4,109,288,96,288c0-1.6,0-2.9,0-4.2
	c0-13.4-0.1-26.7,0.1-40.1c0-2.5-0.7-4.2-2.5-5.9c-14.3-14.2-28.5-28.4-42.7-42.6c-1-1-2.2-1.6-3.5-2.5c1.6-1.7,2.5-2.7,3.4-3.6
	c14.3-14.3,28.7-28.6,42.9-43c1.3-1.3,2.2-3.6,2.3-5.4c0.2-13.4,0.1-26.7,0.1-40.1c0-1.3,0-2.7,0-4.4c4.1,0,7.8,0,11.5,0
	c10.9,0,21.8-0.1,32.6,0.1c2.6,0,4.4-0.7,6.2-2.5C160.5,79.2,174.8,65,189,50.7c1-1,2-1.9,3.1-2.9c1.1,1.1,2.1,2,3.1,2.9
	c14.2,14.2,28.5,28.4,42.6,42.7c1.8,1.8,3.6,2.5,6.2,2.5c14.5-0.1,29-0.1,44.1-0.1c0,1.4,0,2.8,0,4.1c0,13.4,0.1,26.7-0.1,40.1
	c0,2.6,0.8,4.4,2.6,6.2c15.2,15,30.3,30.1,45.7,45.5c-1.1,1.1-2,2.1-2.9,3c-14.3,14.3-28.6,28.7-43,42.9c-1.7,1.7-2.5,3.4-2.5,5.9
	c0.1,14.6,0.1,29.2,0.1,44.3c-1.5,0-2.8,0-4.2,0c-13.4,0-26.8,0.1-40.1,0c-2.4,0-4.2,0.6-5.9,2.4c-14.1,14.2-28.2,28.3-42.4,42.5
	C194.5,333.9,193.7,335.1,192.5,336.7z M264.1,264c0-10.5-0.1-20.5,0.1-30.4c0-1.9,1-4.1,2.3-5.5c10.9-11.2,22-22.2,33.1-33.2
	c0.9-0.9,1.8-1.9,2.8-3c-12.1-12.1-24-23.9-35.8-35.9c-1.4-1.4-2.4-3.8-2.4-5.8c-0.3-8.9-0.1-17.7-0.1-26.6c0-1.2,0-2.4,0-3.7
	c-10.6,0-20.6,0.1-30.6-0.1c-1.7,0-3.9-0.9-5.1-2.1c-11.1-10.8-22-21.9-33-32.8c-1-1-2.1-2-3.4-3.2c-9.5,9.5-19.4,18.4-28.1,28.4
	c-6.7,7.7-14,11.3-24.3,10c-6.4-0.8-12.9-0.2-19.6-0.2c0,10.5,0.1,20.4-0.1,30.4c0,1.9-0.9,4.1-2.2,5.5
	c-10.9,11.2-22,22.2-33.1,33.2c-0.9,0.9-1.8,1.9-2.8,3c12.1,12,23.8,23.8,35.6,35.5c1.9,1.9,2.8,3.8,2.7,6.5
	c-0.2,9.8-0.1,19.7-0.1,29.9c10.4,0,20.5-0.1,30.6,0.1c1.8,0,3.9,0.9,5.1,2.1c11.1,10.8,22,21.9,33,32.8c1,1,2.1,2,3.3,3.2
	c1.1-1,2-1.9,2.9-2.7c11.1-11,22.1-22.2,33.2-33.1c1.3-1.3,3.6-2.2,5.5-2.3C243.6,263.9,253.6,264,264.1,264z"/>
<path class="st0" d="M264.1,264c-10.5,0-20.5-0.1-30.5,0.1c-1.9,0-4.1,1-5.5,2.3c-11.2,10.9-22.2,22-33.2,33.1
	c-0.9,0.9-1.8,1.7-2.9,2.7c-1.2-1.1-2.3-2.1-3.3-3.2c-11-11-21.9-22-33-32.8c-1.2-1.2-3.4-2.1-5.1-2.1c-10.1-0.2-20.2-0.1-30.6-0.1
	c0-10.2-0.1-20.1,0.1-29.9c0-2.7-0.8-4.6-2.7-6.5c-11.8-11.7-23.6-23.5-35.6-35.5c1-1.1,1.9-2.1,2.8-3c11-11.1,22.2-22.1,33.1-33.2
	c1.3-1.3,2.2-3.6,2.2-5.5c0.2-10,0.1-20,0.1-30.4c6.7,0,13.2-0.7,19.6,0.2c10.3,1.3,17.5-2.3,24.3-10c8.7-10,18.5-18.9,28.1-28.4
	c1.3,1.2,2.3,2.2,3.4,3.2c11,11,21.9,22,33,32.8c1.2,1.2,3.4,2.1,5.1,2.1c10,0.2,20,0.1,30.6,0.1c0,1.3,0,2.5,0,3.7
	c0,8.9-0.1,17.8,0.1,26.6c0.1,2,1,4.4,2.4,5.8c11.7,12,23.6,23.7,35.8,35.9c-1,1.1-1.9,2-2.8,3c-11,11.1-22.2,22.1-33.1,33.2
	c-1.3,1.3-2.2,3.6-2.3,5.5C264,243.5,264.1,253.5,264.1,264z"/>
</svg>
